# xmcd
#
# Track frame offsets: 
#        150
#        19193
#        39043
#        67609
#        96246
#        127994
#        152345
#        177073
#        200052
#        233507
#        248552
#        282750
#
# Disc length: 4481 seconds
#
# Revision: 0
# Processed by: cddbd v1.5.2PL0 Copyright (c) Steve Scherf et al.
# Submitted via: ExactAudioCopy v0.99pb4
#
DISCID=85117f0c
DTITLE=Various Artist - The Sound Of T.K. Disco: 12" Choice For Boogi
DTITLE=e Generation [Disc 02]
DYEAR=1979
DGENRE=Soul
TTITLE0=Ultrafunk - Indigo Country
TTITLE1=Stevo - Pay The Price
TTITLE2=Mad Dog Fire Department - Cosmic Funk
TTITLE3=The Controllers - I Can't Turn The Boogie Loose
TTITLE4=Lonnie Smith - For The Love Of It
TTITLE5=Eddie Horan - The Dancer
TTITLE6=Gail Eason - Have A Good Day
TTITLE7=Jimmy McGriff - Tailgunner
TTITLE8=Mary Love - Turn Me, Turn Me, Turn Me
TTITLE9=Skybirst - What They're Doing Downtown
TTITLE10=Modern Sound Corporation - Safari
TTITLE11=Modern Sound Corporation - Safari Pt. 2
EXTD=
EXTT0=
EXTT1=
EXTT2=
EXTT3=
EXTT4=
EXTT5=
EXTT6=
EXTT7=
EXTT8=
EXTT9=
EXTT10=
EXTT11=
PLAYORDER=
